<?xml version="1.0" encoding="UTF-8"?>
<svg id="Layer_2" data-name="Layer 2" xmlns="http://www.w3.org/2000/svg" viewBox="0 0 700 259.09">
  <defs>
    <style>
      .cls-1, .cls-2 {
        fill: #fff;
      }

      .cls-2 {
        fill-rule: evenodd;
      }
    </style>
  </defs>
  <g>
    <path class="cls-2" d="M332.04,91.31h.2v55.13c.03.54.07,1.07.1,1.61.6,2.22,2.28,4.35,4.23,5.22,1.3.58,3.4.91,5.19.6,1.22-.21,2.23-.18,3.23-.6,2.38-1.02,4.45-3.16,5.44-5.57,1.33-3.24.76-8.84.76-13.31.02-13.2.03-26.41.05-39.62,4.05-1.15,8.1-2.31,12.15-3.46v52.67c.33,1.26.29,2.49.66,3.62.82,2.5,3.23,4.36,5.39,5.57,2.46,1.38,10.47.8,14.42.8,13-.02,26.01-.03,39.02-.05v-.2c-.87-1.2-1.75-2.41-2.62-3.62-2.52-3.51-5.24-7.34-7.06-11.45-1.55-3.5-2.87-6.78-5.9-8.79-1.03-.68-2.3-1.11-3.58-1.51-2.47-.76-5.62-.03-7.36.85-4.82,2.46-7.38,7.03-5.6,13.71-4.22-.1-8.44-.2-12.65-.3-1.25-12.23,5.21-21.11,13.56-24.7,6.46-2.78,15.15-2.4,20.77.9,3.55,2.09,6.64,4.79,8.77,8.28,1.14,2.36,2.29,4.72,3.43,7.08,1.64,2.79,3.15,5.64,4.99,8.23,1.55,2.18,3.31,4.24,4.94,6.33,1.27,1.63,3.22,4.01,4.84,5.22h21.22c-1.85,4.05-3.7,8.1-5.55,12.15h-75.82c-4.18,0-8.46.17-11.7-.8-3.1-.93-5.7-2.32-7.96-4.07-.76-.69-1.51-1.37-2.27-2.06h-.15c-3.26,4.23-12.45,8.27-20.67,6.63-1.65-.33-2.97-.67-4.34-1.26-.72-.31-1.44-.96-2.32-1.05-.57,1.65-1.88,3-2.87,4.27-3.29,4.23-7.81,6.59-14.32,7.68-1.27.21-3.05.36-4.54.1-2.2-.39-3.95-.81-5.9-1.31-2.58-.65-5.16-1.8-7.51-2.76-12.89-5.29-22.23-12.33-31.1-21.54.03-.05.07-.1.1-.15.57-.38,1.14-.77,1.71-1.15,1.72-1.14,3.16-2.41,4.74-3.67.96-.9,1.92-1.81,2.87-2.71.99,1.04,1.98,2.08,2.97,3.11,1.6,1.37,3.19,2.74,4.79,4.12,6.11,4.78,13.04,8.98,21.07,11.8,4.4,1.55,8.77,3.44,13.31.75.72-.43,1.61-.87,2.12-1.51,1.09-1.36,2.09-2.96,2.57-4.92.38-1.55.2-3.51.2-5.32v-55.53c3.98-1.15,7.97-2.31,11.95-3.46Z"/>
    <path class="cls-2" d="M219.83,88.95c.02,17.9.03,35.8.05,53.7.5.22,1.01.43,1.51.65,1.13.64,2.25,1.27,3.38,1.91,4.16,2.99,7.51,8,7.51,15.06,0,1.36,0,2.64-.3,3.81-1.69,6.39-5.41,10.65-11.09,13.1-2.47,1.07-6.37,1.97-9.98,1.25-1.38-.28-2.67-.51-3.88-1-3.36-1.37-6.43-3.58-8.37-6.37-1.02-1.46-1.63-3.15-2.52-4.77h-81.34c-2.06,9.21-9.82,16.34-18.29,19.27-2.06.71-4.41.88-6.7,1.3-2.3.42-5.01-.24-6.85-.5-.03-4.17-.07-8.33-.1-12.5,1.39.23,2.87.6,4.43.85,2.7.43,6.7-1.11,8.21-2.01,5.5-3.25,8.01-7.3,8.01-16.06,0-2.02.1-3.93-.2-5.77-.47-2.89-.35-5.67-1.11-8.28l.05-.05c4.01-.49,8.03-.97,12.04-1.46.34,2.11.67,4.22,1.01,6.32.13,2.22.27,4.45.4,6.68,6.74.02,13.47.03,20.21.05,1.05,0,6.08.24,6.5-.15-.72-.89-1.44-1.77-2.17-2.66-1.26-1.59-2.52-3.18-3.78-4.77-.89-.94-1.78-1.87-2.67-2.81-2.03-2.5-4.38-4.71-6.65-6.98-1.14-1.14-2.28-2.28-3.43-3.41.08-.1.17-.2.25-.3.52-.45,1.04-.9,1.56-1.36,1.41-1.12,2.98-2.5,4.08-3.91.79-1.09,1.58-2.17,2.37-3.26.92.9,1.85,1.81,2.77,2.71,1.97,1.59,3.9,3.56,5.49,5.52,1.23,1.29,2.45,2.58,3.68,3.86,2.1,2.48,4.2,4.95,6.3,7.43,1.83,2.39,3.66,4.79,5.49,7.18h.1c3.36-4.94,7.44-9.34,11.14-13.95,1.6-1.69,3.19-3.38,4.79-5.07,1.57-1.93,3.71-4.12,5.64-5.67.69-.67,1.38-1.34,2.07-2.01.37.49.74.97,1.11,1.46,1.34,1.81,2.84,3.73,4.59,5.12.86.72,1.71,1.44,2.57,2.16-.42.43-.84.87-1.26,1.3-1.28,1.25-2.55,2.51-3.83,3.76-3.33,3.32-6.56,6.87-9.47,10.59-1.39,1.67-2.79,3.35-4.18,5.02.03.07.07.13.1.2h27.06c1.72-3.58,3.48-6.78,6.6-8.93,1.04-.72,2.18-1.39,3.38-1.91.52-.22,1.04-.43,1.56-.65.02-16.76.03-33.53.05-50.29,4.03-1.14,8.06-2.28,12.09-3.41ZM251.73,166.29h-12.2v-73.93c4.06-1.12,8.13-2.24,12.2-3.36v77.29ZM24.25,134.47c-.03,4.05-.07,8.1-.1,12.15h-7.31c-1.53,0-3.1.12-4.43-.2-5.68-1.37-9.73-4.55-11.59-9.69-.22-.94-.44-1.87-.66-2.81-.43-2.48.08-5.27.81-7.08.81-2.02,1.68-3.54,2.92-5.07,1.32-1.63,3.38-2.57,5.24-3.66,2.55-1.46,5.11-2.91,7.66-4.37,2.2-1.3,7.18-4.96,10.78-4.37,4.93.81,8.01,3.37,9.12,7.93.02.47.03.94.05,1.41v7.48c-.03,6.46-.07,12.92-.1,19.37v8.68c12.18-.05,24.36-.1,36.54-.15-.02-2.59-.03-5.19-.05-7.78-2.59.02-5.17.03-7.76.05-1.29.2-2.98.09-4.18-.15-6.37-1.3-10.24-4.97-11.99-10.89-.44-1.47-.75-3.73-.4-5.62,1.34-7.41,5.12-9.53,10.58-12.75,2.79-1.59,5.58-3.18,8.37-4.77,4.22-2.49,8.42-4.78,13.56-1.25,4.46,3.06,4.08,7.49,4.08,14.81v22.79c0,8.03.62,12.79-4.38,16.11-3.44,2.28-10.27,1.66-15.97,1.66-7.17.02-14.35.03-21.52.05-3.53,0-8.98.56-11.89-.25-3.07-.85-5.37-3.08-6.5-5.87-1.05-2.6-.66-6.56-.66-10.09.03-6.41.07-12.82.1-19.22v-7.58h-.05c-1.58.89-3.16,1.77-4.74,2.66-2.18,1.28-4.76,2.25-6.7,3.81-.65.52-1.06,1.86-.71,2.91.2.58.91,1.32,1.46,1.56.79.34,2.15.2,3.23.2h7.21ZM72.93,123.03c-2.89,1.69-5.78,3.38-8.67,5.07-1.54.92-3.07,1.27-3.38,3.46-.49,3.52,5.25,2.66,8.37,2.66,1.31-.03,2.62-.07,3.93-.1-.02-3.7-.03-7.4-.05-11.09h-.2ZM213.53,153.84c-.54.08-1.08.17-1.61.25-2.1.77-3.69,2.22-4.33,4.42-1.16,3.95,2.64,8.57,6.35,8.08,3.11-.41,5.19-2.06,6.05-4.67,1.41-4.32-2.54-8.07-6.45-8.08Z"/>
    <path class="cls-2" d="M139.25,118.99c1.24,1.21,2.49,2.41,3.73,3.62,2.89,2.87,5.92,5.81,8.47,8.99.59.74,3.9,4.85,4.49,5.02,1.06-1.22,2.12-2.44,3.18-3.67,2.62-3.28,5.56-6.34,8.52-9.29,1.58-1.56,3.16-3.11,4.74-4.67.54,1.19,1.08,2.38,1.61,3.57-1.98,1.98-3.97,3.95-5.95,5.93-3,3.7-6.42,6.96-9.38,10.75-.92,1.14-1.85,2.28-2.77,3.42-.07-.05-.13-.1-.2-.15-1.28-1.56-2.56-3.11-3.83-4.67-2.7-3.45-5.89-6.42-8.62-9.8-1.85-1.86-3.7-3.72-5.55-5.58.52-1.16,1.04-2.31,1.56-3.47Z"/>
    <path class="cls-2" d="M75.3,88.95c3.34,0,6.05,2.7,6.05,6.03s-2.71,6.03-6.05,6.03-6.05-2.7-6.05-6.03,2.71-6.03,6.05-6.03Z"/>
    <path class="cls-2" d="M28.5,88.95c3.34,0,6.05,2.7,6.05,6.03s-2.71,6.03-6.05,6.03-6.05-2.7-6.05-6.03,2.71-6.03,6.05-6.03Z"/>
    <path class="cls-2" d="M16.39,88.95c3.34,0,6.05,2.7,6.05,6.03s-2.71,6.03-6.05,6.03-6.05-2.7-6.05-6.03,2.71-6.03,6.05-6.03Z"/>
    <path class="cls-2" d="M144.45,115.27c.87.87,1.75,1.74,2.62,2.61,1.61,1.61,3.3,3.15,4.74,4.92,1.31,1.42,2.62,2.85,3.93,4.27h.2c.76-.82,1.51-1.64,2.27-2.46,1.68-2.07,3.57-3.96,5.45-5.83,1.18-1.17,2.35-2.34,3.53-3.52.24.79.47,1.57.71,2.36-.82.82-1.65,1.64-2.47,2.46-1.04,1.05-2.08,2.11-3.13,3.16-2.13,2.38-4.27,4.76-6.41,7.13-.15-.13-.3-.27-.45-.4-.86-.95-1.71-1.91-2.57-2.86-1.94-2.41-4.17-4.56-6.35-6.73-.92-.92-1.85-1.84-2.77-2.76.24-.79.47-1.57.71-2.36Z"/>
  </g>
  <g>
    <path class="cls-1" d="M28.27,199.89v10.29h10.86v-10.29h4.68v25.67h-4.68v-11.31h-10.86v11.31h-4.68v-25.67h4.68Z"/>
    <path class="cls-1" d="M80.34,212.46c0,8.61-5.22,13.52-12.3,13.52s-11.81-5.52-11.81-13.07,4.95-13.44,12.19-13.44,11.92,5.67,11.92,12.99ZM61.17,212.85c0,5.22,2.63,9.37,7.12,9.37s7.08-4.19,7.08-9.56c0-4.84-2.4-9.41-7.08-9.41s-7.12,4.3-7.12,9.6Z"/>
    <path class="cls-1" d="M92.75,199.89h4.68v21.75h10.55v3.92h-15.24v-25.67Z"/>
    <path class="cls-1" d="M125.2,218.29l-2.21,7.28h-4.84l8.23-25.67h5.98l8.34,25.67h-5.03l-2.32-7.28h-8.15ZM132.55,214.75l-2.02-6.32c-.5-1.56-.91-3.31-1.3-4.8h-.08c-.38,1.49-.76,3.28-1.22,4.8l-1.98,6.32h6.59Z"/>
    <path class="cls-1" d="M152.66,199.89h4.69v21.75h10.55v3.92h-15.24v-25.67Z"/>
    <path class="cls-1" d="M200.45,218.29l-2.21,7.28h-4.84l8.23-25.67h5.98l8.34,25.67h-5.03l-2.32-7.28h-8.15ZM207.8,214.75l-2.02-6.32c-.49-1.56-.91-3.31-1.29-4.8h-.08c-.38,1.49-.76,3.28-1.22,4.8l-1.98,6.32h6.59Z"/>
    <path class="cls-1" d="M227.91,199.89h4.68v21.75h10.55v3.92h-15.24v-25.67Z"/>
    <path class="cls-1" d="M276.74,215.09c-.15-3.31-.34-7.31-.3-10.78h-.11c-.84,3.12-1.91,6.59-3.05,9.83l-3.73,11.12h-3.62l-3.43-10.97c-.99-3.28-1.91-6.78-2.59-9.98h-.08c-.11,3.35-.27,7.43-.46,10.93l-.57,10.32h-4.38l1.71-25.67h6.17l3.35,10.32c.91,3.01,1.71,6.06,2.36,8.91h.11c.69-2.78,1.56-5.94,2.55-8.95l3.54-10.29h6.09l1.49,25.67h-4.57l-.5-10.48Z"/>
    <path class="cls-1" d="M299.86,218.29l-2.21,7.28h-4.84l8.23-25.67h5.98l8.34,25.67h-5.03l-2.32-7.28h-8.15ZM307.21,214.75l-2.02-6.32c-.49-1.56-.91-3.31-1.29-4.8h-.08c-.38,1.49-.76,3.28-1.22,4.8l-1.98,6.32h6.59Z"/>
    <path class="cls-1" d="M327.32,200.24c1.75-.3,4.38-.53,7.09-.53,3.69,0,6.21.61,7.92,2.06,1.41,1.18,2.21,2.97,2.21,5.14,0,3.31-2.25,5.56-4.65,6.44v.12c1.83.68,2.93,2.48,3.58,4.95.8,3.2,1.49,6.17,2.02,7.16h-4.84c-.38-.76-.99-2.86-1.71-6.06-.72-3.35-1.94-4.42-4.61-4.49h-2.36v10.55h-4.65v-25.33ZM331.96,211.59h2.78c3.16,0,5.14-1.68,5.14-4.23,0-2.82-1.98-4.12-5.03-4.12-1.49,0-2.44.12-2.89.23v8.11Z"/>
    <path class="cls-1" d="M371.73,214.18h-9.67v7.54h10.82v3.85h-15.5v-25.67h14.93v3.85h-10.25v6.63h9.67v3.81Z"/>
    <path class="cls-1" d="M385.36,199.89h14.82v3.85h-10.13v7.08h9.45v3.85h-9.45v10.89h-4.69v-25.67Z"/>
    <path class="cls-1" d="M415.52,218.29l-2.21,7.28h-4.84l8.23-25.67h5.98l8.34,25.67h-5.03l-2.33-7.28h-8.15ZM422.87,214.75l-2.02-6.32c-.5-1.56-.91-3.31-1.3-4.8h-.08c-.38,1.49-.76,3.28-1.22,4.8l-1.98,6.32h6.59Z"/>
  </g>
  <g>
    <path class="cls-2" d="M497.49,48.74c3.29-.04,6.86.11,9.88.6,1.27.11,2.55.21,3.82.32,3.55.62,7.28.94,10.67,1.67,3.45.74,6.74,1.1,10,2.07,4.42,1.31,8.95,2.27,13.14,3.89,2.16.79,4.33,1.59,6.49,2.38,7.61,3.22,14.98,6.65,21.74,10.69,4.63,2.77,8.97,5.66,13.26,8.7,1.54,1.09,2.97,2.26,4.46,3.38.61.46,1.22.93,1.83,1.39.14-.03.12-.02.2-.08.73-.57,1.46-1.14,2.19-1.71,1.66-1.24,3.32-2.49,4.98-3.73,4.98-3.51,10.21-6.74,15.57-9.89,2.79-1.64,5.75-3.05,8.76-4.37,1.22-.6,2.44-1.19,3.66-1.79,5.13-2.24,10.34-4.23,15.97-6,5.34-1.68,11-3.1,16.81-4.45,3.27-.76,6.5-.96,9.92-1.59,5.18-.95,11.51-1.46,17.4-1.47v5.72c0,.48.18,1.73-.08,2.03-2.42.13-4.83.26-7.25.4-1.69.15-3.37.29-5.06.44-3.39.55-6.67.6-9.92,1.31-4.7,1.03-9.45,1.61-13.98,2.86-9.04,2.5-17.65,5.39-25.65,8.82-2.12.91-4.09,1.92-6.13,2.82-.97.45-1.94.9-2.91,1.35-2.1,1.14-4.2,2.28-6.29,3.42-4.11,2.45-8.2,4.92-12.15,7.55-2,1.43-4.01,2.86-6.01,4.29-.81-.6-1.62-1.19-2.43-1.79-2.09-1.48-4.18-2.99-6.37-4.37-7.1-4.47-14.52-8.93-22.54-12.44-8.66-3.79-17.91-6.96-27.72-9.65-4.66-1.28-9.56-1.94-14.42-2.94-3.14-.65-6.23-.7-9.48-1.23-1.69-.15-3.37-.29-5.06-.44-2.44-.13-4.89-.26-7.33-.4v-7.75Z"/>
    <path class="cls-2" d="M694.85,66.22v7.97c-2.79-.01-5.52-.28-8.35-.28-.96.01-1.92.03-2.88.04-1.71.27-3.45-.09-5.03.16-1.36.05-2.72.11-4.07.16-2.25.21-4.5.42-6.75.64-4.45.77-8.87,1.09-13.1,2.03-11.79,2.62-22.38,6-32.39,10.32-2.82,1.22-5.77,2.66-8.39,4.18-1.22.62-2.45,1.25-3.67,1.87-3.25,1.91-6.55,3.8-9.66,5.86-2.46,1.7-4.93,3.4-7.39,5.1-.79-.57-1.57-1.14-2.36-1.71-1.96-1.33-3.91-2.66-5.87-3.98-5.18-3.26-10.59-6.56-16.41-9.12-1.46-.73-2.93-1.46-4.39-2.19-10-4.32-20.62-7.72-32.39-10.32-4.23-.93-8.65-1.26-13.1-2.03-2.25-.21-4.5-.43-6.75-.64-1.36-.05-2.72-.11-4.07-.16-1.58-.25-3.32.11-5.03-.16-.97-.01-1.94-.03-2.92-.04-2.81,0-5.53.26-8.31.28.01-2.66.03-5.31.04-7.97,2.5-.01,5.01-.03,7.51-.04,1.21.03,2.42.05,3.63.08,1.12.01,2.24.03,3.35.04,2.38.19,4.77.37,7.15.56,4.86.81,9.71,1.06,14.34,2.07,16.71,3.67,32.04,8.6,44.93,16.1,5.43,3.16,10.8,6.09,15.78,9.64,1.61,1.17,3.22,2.34,4.83,3.51.76-.14,1.54-1.05,2.12-1.47,1.64-1.17,3.28-2.34,4.91-3.51,1.72-1.12,3.43-2.23,5.15-3.35,2.83-1.69,5.71-3.15,8.59-4.82,1.41-.77,2.82-1.54,4.23-2.31,4.3-1.9,8.54-4.01,13.02-5.78,6.51-2.57,13.46-4.55,20.57-6.49,4.64-1.27,9.58-1.86,14.5-2.75,2.32-.28,4.63-.56,6.95-.84,2.38-.19,4.77-.37,7.15-.56,1.12-.01,2.24-.03,3.35-.04,1.21-.03,2.42-.05,3.63-.08,2.52.01,5.03.03,7.55.04Z"/>
    <path class="cls-2" d="M485.65,87.32v-2.84c1.74-.16,3.48-.31,5.22-.47,1.82-.1,3.64-.21,5.45-.31h3.39c1.71,0,3.6-.17,5.26.08,1.04.03,2.08.05,3.12.08,3.33.51,6.68.21,9.9.78,7.39,1.3,14.57,2.14,21.23,4.16,3.46,1.05,7.01,1.97,10.32,3.27,2.16.84,4.31,1.69,6.47,2.53v.08c-1.48-.48-2.96-.96-4.44-1.44-2.79-.79-5.58-1.58-8.38-2.37-5.4-1.61-11.35-2.16-17.22-3.27-2.49-.47-4.91-.36-7.48-.78-3.61-.59-7.86-.62-11.84-.62-3.22.05-6.44.1-9.66.16-1.87.12-3.74.23-5.61.35-1.91.21-3.82.41-5.73.62Z"/>
    <path class="cls-2" d="M700,84.48v2.84c-1.93-.21-3.87-.41-5.8-.62-1.86-.12-3.71-.23-5.57-.35-3.22-.05-6.44-.1-9.66-.16-4.05,0-8.15.04-11.84.62-2.57.41-4.99.32-7.48.78-5.84,1.07-11.71,1.66-17.1,3.23-2.79.79-5.58,1.58-8.38,2.37-1.56.51-3.12,1.01-4.67,1.52v-.08c1.38-.54,2.75-1.09,4.13-1.63,2.65-.92,5.3-1.84,7.95-2.76,4.9-1.55,10.11-2.66,15.39-3.89,3.57-.57,7.14-1.14,10.71-1.71,1.75-.17,3.51-.34,5.26-.51,2.13-.1,4.26-.21,6.39-.31,1.99-.32,4.3-.15,6.35-.12h3.66c1.79.1,3.58.21,5.38.31,1.77.16,3.53.31,5.3.47Z"/>
    <path class="cls-2" d="M591.69,0c.01,15.2.03,30.4.04,45.59-1.66.48-3.41,2.25-2.8,4.66.24.97.8,1.82,1.52,2.33.14.1,1.26.58,1.29.62v24.72c-.95-.84-1.9-1.68-2.84-2.53-1.69-1.39-3.38-2.77-5.06-4.16-1.57-1.15-3.14-2.31-4.71-3.46-2.53-7.8-5.06-15.6-7.6-23.4.57-.62,1.14-1.24,1.71-1.87,1.58-1.95,3.26-3.75,4.75-5.83,5.83-8.15,10.58-17.71,12.43-29.81-1.51-1.11-2.01-3.72-.78-5.48.5-.72,1.29-.94,2.06-1.4Z"/>
    <path class="cls-2" d="M593.87,0c1.64.47,3.39,2.3,2.77,4.7-.14.54-.47,1.18-.78,1.59-.21.28-.56.34-.62.78.69,2.54.86,5.1,1.6,7.5,1.99,6.51,4.44,12.42,7.67,17.69,2.06,3.35,4.54,6.35,6.93,9.37.87.93,1.74,1.87,2.61,2.8-2.51,7.77-5.01,15.55-7.52,23.32-1.6,1.17-3.19,2.33-4.79,3.5-1.73,1.42-3.45,2.85-5.18,4.28-.88.79-1.77,1.58-2.65,2.37h-.04c.01-8.24.03-16.48.04-24.72,3.84-.75,3.63-6.62-.04-7.58V0Z"/>
    <path class="cls-2" d="M614.08,104.82v121.62l-.27,13.58c-.29,2.93-.91,5.54-2.22,7.79-.68,1.18-1.44,2.28-2.29,3.31-2.6,3.17-5.98,5.61-10.32,6.99h-.03c-1.68.53-3.42.56-5.42.89-1.97.33-5.12-.36-6.8-.91-.19-.05-.37-.12-.51-.18-4.35-1.69-7.37-3.74-9.86-6.79-.83-1-1.59-2.1-2.32-3.34-1.38-2.32-2-4.87-2.27-7.8l-.22-13.56v-84.43c0-4.51.01-9.02.01-13.53,0-1.73.01-3.46.01-5.19,0-6.16.01-12.33.02-18.5h.01s0-.02,0-.02c0-.49-.12-2.57.08-2.79,2.4,1.43,4.8,2.87,7.2,4.3,1.44.95,2.88,1.88,4.32,2.83.03.06.05.14.07.21v5.36h-.01v117.57c0,.11,0,.21-.01.32-.02,2.67-.29,5.84.36,7.96.39,1.26,1.02,2.35,1.81,3.28.5.6,1.08,1.12,1.69,1.58,1.26.92,3.63,2.31,6.07,1.94l2.33-.35c1.97-.59,3.55-1.69,4.72-3.17.76-.95,1.33-2.03,1.74-3.24.7-2.07.51-5.22.45-8.01-.01-.44-.02-.86-.02-1.27v-119.53c0-.75-.19-1.99.07-2.56,1.44-.95,2.88-1.89,4.32-2.84,2.41-1.44,4.8-2.88,7.21-4.31.19.21.07,2.3.07,2.8Z"/>
    <path class="cls-2" d="M571.53,226.42l.22,13.56c-2.14-1.12-4.31-2.2-6.51-3.21-3.24-1.5-6.54-2.89-9.89-4.16-6.6-2.72-13.86-4.69-21.37-6.46-1.74-.34-3.48-.67-5.22-1.01-1.66-.36-3.32-.56-5-.76-1.48-.22-2.97-.42-4.47-.6-.09-.01-.18-.03-.26-.04-1.07-.19-2.19-.27-3.3-.34-1.46-.14-2.92-.25-4.39-.35-.03-.01-.06-.01-.1-.02h-.23s-.02,0-.04-.01c-3.24-.2-6.51-.3-9.81-.3-5.23,0-10.41.26-15.5.78v-124.75c17.53-2.23,36.75.03,51.11,3.84,9.44,2.49,15.15,5.16,19.44,10.11,2.75,3.16,4.97,7.59,4.97,13.77v82.39c-.41-.15-5.39-1.81-5.81-1.96,0-1.4-.06-1.27-.06-2.67v-12.24c0-12.77.04-21.93.05-32.71.01-4.3.09-23.12-.02-24.23-.67-7-.79-16.36-26.04-22.36-14.05-3.34-23.24-3.12-31.88-3.1-.01,33.71-.03,67.42-.04,101.13,1.26-.03,2.52-.05,3.78-.05,25.17,0,49.03,5.64,70.38,15.74Z"/>
    <path class="cls-2" d="M700,98.75v124.75c-5.11-.52-10.28-.78-15.51-.78-3.3,0-6.57.11-9.82.3-.01,0-.02,0-.04.01h-.22s-.07.01-.11.02c-1.47.09-2.93.21-4.38.35-1.14.06-2.24.15-3.3.34-.09.01-.18.03-.26.04-1.51.18-3.01.38-4.5.6-1.67.2-3.33.4-4.98.76-1.73.34-3.48.67-5.22,1.01-7.49,1.78-14.77,3.74-21.37,6.46-3.35,1.27-6.64,2.66-9.88,4.16-2.23,1.03-4.44,2.1-6.6,3.25l.27-13.58c21.36-10.11,45.22-15.77,70.41-15.77,1.26,0,2.52.02,3.78.05-.01-33.71-.03-67.42-.04-101.13-8.64-.02-17.84-.24-31.88,3.1-25.26,5.99-25.37,15.36-26.04,22.36-.11,1.1-.03,19.93-.02,24.23.01,10.77.05,19.94.05,32.71v12.24c0,1.4-.06,1.27-.06,2.67-.42.15-5.39,1.81-5.81,1.96v-82.39c0-6.18,2.22-10.6,4.97-13.77,4.3-4.95,10.01-7.62,19.44-10.11,14.36-3.8,33.58-6.06,51.12-3.84Z"/>
  </g>
</svg>